<svg xmlns="http://www.w3.org/2000/svg" version="1.1" xmlns:xlink="http://www.w3.org/1999/xlink" xmlns:svgjs="http://svgjs.dev/svgjs" width="1500" height="549" viewBox="0 0 1500 549"><g transform="matrix(1,0,0,1,-0.9090909090909918,-0.12861987646863327)"><svg viewBox="0 0 396 145" data-background-color="#000000" preserveAspectRatio="xMidYMid meet" height="549" width="1500" xmlns="http://www.w3.org/2000/svg" xmlns:xlink="http://www.w3.org/1999/xlink"><g id="tight-bounds" transform="matrix(1,0,0,1,0.2400000000000091,0.033970641325964834)"><svg viewBox="0 0 395.52 144.93205871734807" height="144.93205871734807" width="395.52"><g><svg viewBox="0 0 395.52 144.93205871734807" height="144.93205871734807" width="395.52"><g><svg viewBox="0 0 395.52 144.93205871734807" height="144.93205871734807" width="395.52"><g transform="matrix(1,0,0,1,0,89.57382667314917)"><svg viewBox="0 0 395.52 55.35823204419889" height="55.35823204419889" width="395.52"><g id="textblocktransform"><svg viewBox="0 0 395.52 55.35823204419889" height="55.35823204419889" width="395.52" id="textblock"><g><svg viewBox="0 0 395.52 55.35823204419889" height="55.35823204419889" width="395.52"><g transform="matrix(1,0,0,1,0,0)"><svg width="395.52" viewBox="3.6 -37.5 271.47999999999996 38" height="55.35823204419889" data-palette-color="#ffffff"><path d="M13.45 0.5L13.45 0.5Q11.3 0.5 9.83-0.33 8.35-1.15 7.48-2.33 6.6-3.5 6.15-4.7 5.7-5.9 5.6-6.65L5.6-6.65 5.2-6.65 5.2 0 3.6 0 3.6-14.75 6.2-14.75 6.2-12.8Q6.2-11.95 6.33-10.5 6.45-9.05 6.83-7.45 7.2-5.85 7.95-4.42 8.7-3 10-2.1 11.3-1.2 13.3-1.2L13.3-1.2Q15.7-1.2 17.2-2.68 18.7-4.15 18.7-6.8L18.7-6.8Q18.7-9.1 17.68-11.05 16.65-13 15-14.78 13.35-16.55 11.53-18.28 9.7-20 8.05-21.78 6.4-23.55 5.38-25.58 4.35-27.6 4.35-29.95L4.35-29.95Q4.35-32.3 5.4-33.98 6.45-35.65 8.18-36.58 9.9-37.5 12-37.5L12-37.5Q14.35-37.5 15.8-36.5 17.25-35.5 18.05-34.2 18.85-32.9 19.15-31.95L19.15-31.95 19.55-31.95 19.55-37 21.15-37 21.15-24.6 18.55-24.6 18.55-26.2Q18.55-28.9 17.78-31.1 17-33.3 15.58-34.58 14.15-35.85 12.1-35.85L12.1-35.85Q10.05-35.85 8.88-34.5 7.7-33.15 7.7-31.1L7.7-31.1Q7.7-29.1 8.72-27.28 9.75-25.45 11.4-23.73 13.05-22 14.88-20.25 16.7-18.5 18.35-16.63 20-14.75 21.03-12.63 22.05-10.5 22.05-8L22.05-8Q22.05-5.4 20.88-3.5 19.7-1.6 17.75-0.55 15.8 0.5 13.45 0.5ZM37.5 0.5L37.5 0.5Q34.95 0.5 33.02-1.1 31.1-2.7 29.82-5.43 28.55-8.15 27.9-11.55 27.25-14.95 27.25-18.5L27.25-18.5Q27.25-22.05 27.9-25.45 28.55-28.85 29.82-31.58 31.1-34.3 33.02-35.9 34.95-37.5 37.5-37.5L37.5-37.5Q40.05-37.5 41.97-35.9 43.9-34.3 45.17-31.58 46.45-28.85 47.1-25.45 47.75-22.05 47.75-18.5L47.75-18.5Q47.75-14.95 47.1-11.55 46.45-8.15 45.17-5.43 43.9-2.7 41.97-1.1 40.05 0.5 37.5 0.5ZM37.5-1.35L37.5-1.35Q40.45-1.35 42-3.65 43.55-5.95 43.55-10.25L43.55-10.25 43.55-26.75Q43.55-31.05 42-33.35 40.45-35.65 37.5-35.65L37.5-35.65Q34.6-35.65 33.02-33.35 31.45-31.05 31.45-26.75L31.45-26.75 31.45-10.25Q31.45-5.95 33-3.65 34.55-1.35 37.5-1.35ZM62.7 0.5L62.7 0.5Q60.15 0.5 58.22-1.1 56.3-2.7 55.02-5.43 53.75-8.15 53.1-11.55 52.45-14.95 52.45-18.5L52.45-18.5Q52.45-22.05 53.1-25.45 53.75-28.85 55.02-31.58 56.3-34.3 58.22-35.9 60.15-37.5 62.7-37.5L62.7-37.5Q64.7-37.5 66.07-36.68 67.45-35.85 68.25-34.7 69.05-33.55 69.3-32.45L69.3-32.45 69.7-32.45 69.7-37 71.3-37 71.3-24.4 68.7-24.4 68.7-25.55Q68.7-29.4 67.82-31.6 66.95-33.8 65.57-34.73 64.2-35.65 62.7-35.65L62.7-35.65Q59.8-35.65 58.22-33.35 56.65-31.05 56.65-26.75L56.65-26.75 56.65-10.25Q56.65-5.95 58.2-3.65 59.75-1.35 62.7-1.35L62.7-1.35Q64.2-1.35 65.57-2.27 66.95-3.2 67.82-5.4 68.7-7.6 68.7-11.45L68.7-11.45 68.7-12.6 71.3-12.6 71.3 0 69.7 0 69.7-4.55 69.3-4.55Q69.05-3.5 68.25-2.33 67.45-1.15 66.07-0.33 64.7 0.5 62.7 0.5ZM97.49 0L77.59 0 77.59-1.7 85.79-1.7 85.79-35.3 77.59-35.3 77.59-37 97.49-37 97.49-35.3 89.29-35.3 89.29-1.7 97.49-1.7 97.49 0ZM107.84 0L99.94 0 99.94-1.7 102.59-1.7 111.24-37 113.24-37 121.89-1.7 125.09-1.7 125.09 0 113.29 0 113.29-1.7 118.34-1.7 115.44-13.55 107.19-13.55 104.34-1.7 107.84-1.7 107.84 0ZM115.04-15.15L111.29-30.6 107.59-15.15 115.04-15.15ZM147.59 0L126.54 0 126.54-1.7 130.74-1.7 130.74-35.3 126.54-35.3 126.54-37 138.44-37 138.44-35.3 134.24-35.3 134.24-1.75 141.34-1.75Q144.99-1.75 145.44-5.4L145.44-5.4 146.19-11.7 147.59-11.7 147.59 0ZM157.94 0L150.04 0 150.04-1.7 153.04-1.7 153.04-35.3 150.04-35.3 150.04-37 154.94-37 162.19-5.8 169.44-37 175.09-37 175.09-35.3 171.89-35.3 171.89-1.7 175.09-1.7 175.09 0 165.79 0 165.79-1.7 168.49-1.7 168.49-26.3 162.39 0 160.84 0 154.74-26.3 154.74-1.7 157.94-1.7 157.94 0ZM197.58 0L176.53 0 176.53-1.7 180.73-1.7 180.73-35.3 176.53-35.3 176.53-37 197.08-37 197.08-26.3 195.68-26.3 194.98-31.65Q194.53-35.25 190.83-35.25L190.83-35.25 184.23-35.25 184.23-21.05 190.68-21.05 190.68-27.4 192.28-27.4 192.28-13 190.68-13 190.68-19.35 184.23-19.35 184.23-1.75 191.33-1.75Q194.98-1.75 195.43-5.4L195.43-5.4 196.18-11.7 197.58-11.7 197.58 0ZM211.33 0L201.88 0 201.88-1.7 206.08-1.7 206.08-35.3 201.88-35.3 201.88-37 211.33-37Q214.48-37 216.78-35.43 219.08-33.85 220.58-31.2 222.08-28.55 222.83-25.25 223.58-21.95 223.58-18.5L223.58-18.5Q223.58-15.05 222.83-11.75 222.08-8.45 220.58-5.8 219.08-3.15 216.78-1.58 214.48 0 211.33 0L211.33 0ZM211.33-35.4L211.33-35.4 209.58-35.4 209.58-1.6 211.33-1.6Q213.53-1.6 215.36-2.65 217.18-3.7 218.28-5.73 219.38-7.75 219.38-10.65L219.38-10.65 219.38-26.35Q219.38-29.3 218.28-31.3 217.18-33.3 215.36-34.35 213.53-35.4 211.33-35.4ZM247.48 0L227.58 0 227.58-1.7 235.78-1.7 235.78-35.3 227.58-35.3 227.58-37 247.48-37 247.48-35.3 239.28-35.3 239.28-1.7 247.48-1.7 247.48 0ZM257.83 0L249.93 0 249.93-1.7 252.58-1.7 261.23-37 263.23-37 271.88-1.7 275.08-1.7 275.08 0 263.28 0 263.28-1.7 268.33-1.7 265.43-13.55 257.18-13.55 254.33-1.7 257.83-1.7 257.83 0ZM265.03-15.15L261.28-30.6 257.58-15.15 265.03-15.15Z" opacity="1" transform="matrix(1,0,0,1,0,0)" fill="#ffffff" class="wordmark-text-0" data-fill-palette-color="primary" id="text-0"></path></svg></g></svg></g></svg></g></svg></g><g transform="matrix(1,0,0,1,147.98654019528988,0)"><svg viewBox="0 0 99.54691960942026 76.50507668508287" height="76.50507668508287" width="99.54691960942026"><g><svg xmlns="http://www.w3.org/2000/svg" xmlns:xlink="http://www.w3.org/1999/xlink" version="1.1" x="0" y="0" viewBox="1.504 12.231 96.99 74.54" enable-background="new 0 0 100 100" xml:space="preserve" height="76.50507668508287" width="99.54691960942026" class="icon-icon-0" data-fill-palette-color="accent" id="icon-0"><g fill="#ffffff" data-fill-palette-color="accent"><path d="M22.498 58.454C33.057 58.454 39.873 57.107 42.385 55.967 42.004 45.714 37.638 40.362 37.638 40.362 36.426 38.883 36.121 36.265 36.961 34.547 36.961 34.547 38.248 31.913 38.248 28.519 38.248 19.524 30.956 12.231 21.961 12.231 12.965 12.231 5.673 19.523 5.673 28.519 5.673 31.913 6.96 34.547 6.96 34.547 7.8 36.266 7.496 38.882 6.283 40.362 6.283 40.362 2.111 45.457 1.561 55.244 2.086 56.392 9.43 58.454 22.498 58.454M21.961 18.468C28.824 18.468 34.387 22.881 34.387 28.326 34.387 33.77 28.824 38.184 21.961 38.184S9.535 33.77 9.535 28.326 15.098 18.468 21.961 18.468" fill="#ffffff" data-fill-palette-color="accent"></path><path d="M41.539 64.985A33 33 0 0 0 42.404 58.011C36.367 60.356 23.218 60.394 22.499 60.394 21.733 60.394 6.855 60.352 1.504 57.521 1.55 68.422 6.948 75.158 6.948 75.158 8.144 76.65 8.269 78.725 7.224 79.77S5.325 81.177 5.325 82.422C5.325 83.669 6.736 83.855 8.459 84.683 8.459 84.683 12.806 86.771 22.019 86.771 31.23 86.771 35.578 84.683 35.578 84.683 37.302 83.854 38.712 83.756 38.712 82.422S37.842 80.803 36.778 79.743C35.713 78.682 35.828 76.6 37.031 75.113 37.031 75.113 39.919 71.528 41.467 65.266A1 1 0 0 1 41.425 64.984z" fill="#ffffff" data-fill-palette-color="accent"></path><path d="M73.727 66.009C73.389 60.316 70.596 54.671 70.596 54.671 69.722 52.97 69.68 50.165 70.5 48.437 70.5 48.437 71.134 47.106 71.134 44.471 71.134 37.485 65.622 31.822 58.824 31.822 52.028 31.822 46.517 37.485 46.517 44.471 46.517 47.106 47.15 48.437 47.15 48.437 47.972 50.165 47.93 52.97 47.055 54.671 47.055 54.671 44.262 60.316 43.923 66.01 46.265 66.867 51.282 67.746 58.824 67.746 66.367 67.746 71.385 66.867 73.727 66.009M49.289 44.751C49.289 40.967 53.557 37.9 58.825 37.9S68.36 40.967 68.36 44.751 64.091 51.601 58.825 51.601C53.557 51.602 49.289 48.535 49.289 44.751" fill="#ffffff" data-fill-palette-color="accent"></path><path d="M58.824 68.716C53.94 68.716 47.398 68.232 43.891 67.007 43.891 67.041 43.888 67.076 43.888 67.111 43.889 74.476 46.607 81.025 50.71 84.905H66.939C71.043 81.025 73.76 74.476 73.76 67.111 73.76 67.076 73.757 67.041 73.757 67.007 70.252 68.231 63.709 68.716 58.824 68.716" fill="#ffffff" data-fill-palette-color="accent"></path><path d="M76.891 72.111C76.926 77.381 78.878 82.021 81.821 84.905H93.565C96.506 82.021 98.459 77.381 98.494 72.11 96.265 72.952 91.89 73.398 87.692 73.398S79.121 72.952 76.891 72.111" fill="#ffffff" data-fill-palette-color="accent"></path><path d="M98.488 71.611C98.371 67.343 96.207 62.903 96.207 62.903 95.576 61.672 95.545 59.642 96.14 58.392 96.14 58.392 96.599 57.428 96.599 55.522 96.599 50.468 92.612 46.37 87.692 46.37 82.775 46.37 78.786 50.468 78.786 55.522 78.786 57.428 79.245 58.392 79.245 58.392 79.84 59.642 79.809 61.671 79.177 62.903 79.177 62.903 77.014 67.343 76.897 71.611 78.613 72.285 82.412 72.913 87.693 72.913S96.772 72.285 98.488 71.611M81.479 56.293C81.479 53.616 84.26 51.445 87.692 51.445S93.904 53.616 93.904 56.293 91.123 61.14 87.692 61.14 81.479 58.97 81.479 56.293" fill="#ffffff" data-fill-palette-color="accent"></path></g></svg></g></svg></g><g></g></svg></g></svg></g><defs></defs></svg><rect width="395.52" height="144.93205871734807" fill="none" stroke="none" visibility="hidden"></rect></g></svg></g></svg>